<?xml version="1.0" encoding="UTF-8" standalone="no"?>
<svg
   xmlns:dc="http://purl.org/dc/elements/1.1/"
   xmlns:cc="http://creativecommons.org/ns#"
   xmlns:rdf="http://www.w3.org/1999/02/22-rdf-syntax-ns#"
   xmlns:svg="http://www.w3.org/2000/svg"
   xmlns="http://www.w3.org/2000/svg"
   version="1.1"
   id="svg2"
   viewBox="0 0 744.09448819 1052.3622047"
   height="297mm"
   width="210mm">
  <defs
     id="defs4" />
  <metadata
     id="metadata7">
    <rdf:RDF>
      <cc:Work
         rdf:about="">
        <dc:format>image/svg+xml</dc:format>
        <dc:type
           rdf:resource="http://purl.org/dc/dcmitype/StillImage" />
        <dc:title></dc:title>
      </cc:Work>
    </rdf:RDF>
  </metadata>
  <g
     id="layer1">
    <path
       id="path3349"
       d="m 247.31467,419.62298 c 0.9479,-3.31375 3.49661,-14.93339 5.66379,-25.82143 4.08905,-20.5436 8.94929,-25.42444 11.99915,-12.05 9.78088,42.89173 9.90172,43.89643 5.27955,43.89643 -1.90143,0 -3.45715,-3.09857 -3.45715,-6.88572 0,-4.00517 -2.30476,-6.88571 -5.50937,-6.88571 -3.03015,0 -6.32303,3.09857 -7.31749,6.88571 -0.99447,3.78715 -3.28723,6.88572 -5.09503,6.88572 -1.80779,0 -2.51135,-2.71125 -1.56345,-6.025 z m 16.0282,-21.72106 c 0,-6.14446 -1.44016,-9.64537 -3.45714,-8.40394 -1.90143,1.17029 -3.45714,5.90959 -3.45714,10.53177 0,4.62217 1.55571,8.40394 3.45714,8.40394 1.90143,0 3.45714,-4.7393 3.45714,-10.53177 z m 19.70999,25.56983 c -4.59526,-4.57625 -2.41473,-8.98758 2.45366,-4.96388 9.00926,7.44615 8.98685,-2.14407 -0.0277,-11.83069 -7.8675,-8.45411 -8.27341,-10.08144 -3.66044,-14.67535 2.85356,-2.84177 7.6425,-4.229 10.64208,-3.0827 7.94846,3.0375 6.68639,8.86236 -1.4605,6.7407 -9.07349,-2.36297 -8.9193,4.57728 0.20978,9.44283 4.54609,2.42291 6.7354,6.50311 6.05,11.27525 -1.06896,7.44267 -9.58619,11.69553 -14.20695,7.09384 z m 21.77572,-23.6452 c 0,-14.91904 1.45968,-25.82143 3.45715,-25.82143 1.90142,0 3.45714,3.94114 3.45714,8.75808 0,6.43115 1.6074,8.48926 6.05,7.74643 5.10887,-0.85428 6.12006,1.93395 6.50039,17.92406 0.43664,18.35721 0.38383,18.47055 -1.72857,3.7102 -3.03482,-21.20577 -10.82182,-22.84329 -10.82182,-2.27566 0,8.67886 -1.55572,15.77975 -3.45714,15.77975 -1.99747,0 -3.45715,-10.90239 -3.45715,-25.82143 z m 32.18555,6.88571 c -0.0194,-11.36143 0.61013,-16.42435 1.39896,-11.25094 0.78883,5.17341 0.8047,14.46912 0.0353,20.65714 -0.76941,6.18802 -1.41482,1.95523 -1.43422,-9.4062 z m 15.06208,16.64047 c -4.51039,-4.49176 -2.21921,-8.80573 2.57315,-4.84486 3.73074,3.08346 5.4738,3.07148 7.41149,-0.051 1.47811,-2.38174 -0.70567,-6.51571 -5.2421,-9.92338 -9.20944,-6.91801 -8.34703,-19.03567 1.35479,-19.03567 3.61838,0 7.18626,1.8147 7.92864,4.03266 0.89209,2.66518 -1.34289,3.33141 -6.5909,1.9647 -7.74773,-2.01769 -7.70804,-1.79256 1.63343,9.26328 7.50214,8.87896 8.71221,12.36551 5.59141,16.1103 -4.25789,5.10924 -10.89453,6.23367 -14.65991,2.48382 z m 21.89523,-23.52618 c 0,-14.91904 1.45967,-25.82143 3.45714,-25.82143 1.90143,0 3.45714,3.9776 3.45714,8.83916 0,7.27238 1.22556,8.45176 6.91429,6.6537 6.41725,-2.02836 6.86948,-0.74573 6.29113,17.84298 -0.6088,19.568 -0.65291,19.65249 -1.91799,3.67488 -0.90031,-11.37087 -2.81715,-16.35358 -6.29113,-16.35358 -3.61676,0 -4.9963,4.27772 -4.9963,15.49286 0,8.52107 -1.55571,15.49286 -3.45714,15.49286 -1.99747,0 -3.45714,-10.90239 -3.45714,-25.82143 z m -221.25713,-12.05 c 0,-1.89357 3.8578,-3.44286 8.57289,-3.44286 9.95932,0 36.36996,-9.88434 36.36996,-13.61165 0,-1.39449 -2.85453,-5.10806 -6.3434,-8.25242 -5.23788,-4.72061 -8.25797,-5.05233 -17.32897,-1.90321 -14.11786,4.90118 -21.27048,2.03968 -21.27048,-8.50951 0,-6.56225 1.43839,-8.01827 6.59466,-6.67546 7.87993,2.05215 21.06248,-9.8663 21.06248,-19.04272 0,-8.33144 -10.69135,-17.74789 -20.15079,-17.74789 -5.70202,0 -7.50635,-2.06894 -7.50635,-8.60714 0,-6.94453 1.71342,-8.60715 8.87013,-8.60715 4.87857,0 12.07395,1.70755 15.98972,3.79454 5.91495,3.15251 8.58093,2.33923 15.7564,-4.80659 l 8.63682,-8.60113 -8.9709,-5.85367 c -4.93399,-3.21952 -16.40486,-7.88981 -25.49082,-10.37842 l -16.51992,-4.52474 13.13596,-0.30785 c 21.48036,-0.50341 45.90438,14.88334 56.89371,35.84215 3.00243,5.72623 5.41557,18.7662 5.41557,29.26429 0,28.98249 -13.30941,49.00232 -39.94568,60.08567 -14.44814,6.01189 -33.77099,7.09088 -33.77099,1.88576 z m 59.02931,-31.46562 c 8.00789,-14.90103 9.85299,-27.93393 6.2942,-44.45939 -4.75889,-22.09827 -10.08375,-26.22598 -20.11479,-15.59255 -6.32146,6.70108 -7.07182,9.54324 -4.01921,15.22353 4.79449,8.92157 4.80366,23.14943 0.0207,32.04963 -2.92634,5.44532 -2.43719,8.37137 2.26438,13.54509 7.68716,8.4591 10.67614,8.31185 15.55477,-0.76631 z m 20.48497,-23.21856 c 0,-35.94732 0.31607,-37.55424 7.77857,-39.54584 15.44239,-4.12131 23.33571,-2.52621 23.33571,4.71573 0,3.78714 1.73708,6.88571 3.86017,6.88571 2.1646,0 3.19204,-3.48063 2.33909,-7.92411 -1.49376,-7.78179 0.74984,-8.40079 124.91841,-34.46464 69.5417,-14.5973 129.22522,-26.5243 132.63003,-26.50447 3.40483,0.02 23.62912,7.15355 44.94285,15.85268 37.40791,15.26791 50.07782,22.05483 41.17229,22.05483 -5.36711,0 -5.36711,11.18079 0,16.52571 3.22665,3.21333 3.22665,4.13143 0,4.13143 -5.36711,0 -5.36711,11.1808 0,16.52572 3.22665,3.21333 3.22665,4.13142 0,4.13142 -2.28172,0 -4.14857,3.87322 -4.14857,8.60715 0,4.73393 1.55571,8.60714 3.45714,8.60714 1.90143,0 3.45714,3.87322 3.45714,8.60714 0,5.91996 -1.88884,8.59248 -6.05,8.56015 -12.62265,-0.0981 -21.60714,-4.38709 -21.60714,-10.31476 0,-5.63031 -6.39416,-10.29539 -14.11133,-10.29539 -1.74589,0 -3.17438,3.92658 -3.17438,8.72572 0,8.43951 -0.54793,8.65335 -16.70263,6.51922 -22.74489,-3.00475 -300.30122,7.60875 -296.55451,11.33998 2.33831,2.32865 170.92471,1.20204 184.47857,-1.23282 9.53345,-1.71261 11.23572,-0.99946 11.23572,4.70715 0,6.34215 -3.57918,6.85469 -62.78279,8.9903 -34.53052,1.24562 -84.31336,2.26474 -110.62855,2.26474 l -47.84579,0 0,-37.46989 z m 27.02628,-7.76526 c -0.15889,-11.46673 -0.91347,-12.50261 -7.37361,-10.12272 -9.46386,3.48644 -11.26512,9.60908 -3.42256,11.63365 5.73505,1.4805 5.75057,1.64359 0.19132,2.01056 -10.91397,0.72045 -7.29009,9.25244 3.92988,9.25244 5.63187,0 6.82048,-2.27466 6.67497,-12.77393 z m 11.00229,7.36372 c 0,-3.78714 -1.55572,-6.88571 -3.45715,-6.88571 -1.90142,0 -3.45714,3.09857 -3.45714,6.88571 0,3.78714 1.55572,6.88572 3.45714,6.88572 1.90143,0 3.45715,-3.09858 3.45715,-6.88572 z m 10.37142,0 c 0,-3.78714 -1.55571,-6.88571 -3.45714,-6.88571 -1.90143,0 -3.45714,3.09857 -3.45714,6.88571 0,3.78714 1.55571,6.88572 3.45714,6.88572 1.90143,0 3.45714,-3.09858 3.45714,-6.88572 z m 24.2,-3.83362 c 0,-4.92136 -2.51276,-6.49495 -10.37142,-6.49495 -8.55224,0 -10.37143,1.40513 -10.37143,8.01087 0,6.94259 1.38306,7.80871 10.37143,6.49495 7.32074,-1.07004 10.37142,-3.42636 10.37142,-8.01087 z m 40.62143,4.21846 c 13.33613,-0.34931 14.69286,-1.19401 14.69286,-9.14798 0,-8.23237 -0.77077,-8.61916 -12.72502,-6.38579 -12.66704,2.36652 -21.55943,3.54412 -33.08212,4.38097 -3.58496,0.26035 -6.05,3.22793 -6.05,7.28331 0,5.69173 1.89159,6.62595 11.23571,5.54916 6.17964,-0.71215 17.8475,-1.468 25.92857,-1.67967 z m 27.89758,-10.12238 c 0.73365,-4.96531 -0.71791,-7.47675 -4.32142,-7.47675 -3.52982,0 -5.42616,3.10831 -5.42616,8.89404 0,10.78551 8.11899,9.60502 9.74758,-1.41729 z m 17.90956,-2.5649 c 0,-11.30063 -11.56535,-10.29486 -13.20473,1.14833 -0.83905,5.85679 0.61589,7.71125 6.05,7.71125 5.38132,0 7.15473,-2.19599 7.15473,-8.85958 z m 17.28571,0.25244 c 0,-6.3119 -1.8438,-8.60714 -6.91428,-8.60714 -5.07049,0 -6.91429,2.29524 -6.91429,8.60714 0,6.31189 1.8438,8.60714 6.91429,8.60714 5.07048,0 6.91428,-2.29525 6.91428,-8.60714 z m 197.05713,0 c 0,-6.18958 -1.86267,-8.60714 -6.63152,-8.60714 -3.64736,0 -9.09236,-0.9404 -12.1,-2.08978 -4.09979,-1.56674 -5.46847,0.0935 -5.46847,6.63327 0,8.52256 4.18086,11.34929 18.14999,12.27142 4.2555,0.28094 6.05,-2.15357 6.05,-8.20777 z m -176.31427,-3.44286 c 0,-6.3119 -1.8438,-8.60714 -6.91429,-8.60714 -5.07048,0 -6.91428,2.29524 -6.91428,8.60714 0,6.3119 1.8438,8.60715 6.91428,8.60715 5.07049,0 6.91429,-2.29525 6.91429,-8.60715 z m 20.74285,-1.244 c 0,-8.65141 -1.05259,-9.65076 -8.64285,-8.20578 -6.33943,1.20685 -8.64286,3.83231 -8.64286,9.85114 0,6.45761 1.84131,8.20579 8.64286,8.20579 7.20534,0 8.64285,-1.63849 8.64285,-9.85115 z m 127.91428,1.244 c 0,-4.73393 -1.55571,-8.60714 -3.45714,-8.60714 -1.90143,0 -3.45714,3.87321 -3.45714,8.60714 0,4.73393 1.55571,8.60715 3.45714,8.60715 1.90143,0 3.45714,-3.87322 3.45714,-8.60715 z m -307.68569,-1.72143 c 0,-3.78714 -1.55572,-6.88571 -3.45715,-6.88571 -1.90142,0 -3.45714,3.09857 -3.45714,6.88571 0,3.78715 1.55572,6.88572 3.45714,6.88572 1.90143,0 3.45715,-3.09857 3.45715,-6.88572 z m 10.37142,0 c 0,-3.78714 -1.55571,-6.88571 -3.45714,-6.88571 -1.90143,0 -3.45714,3.09857 -3.45714,6.88571 0,3.78715 1.55571,6.88572 3.45714,6.88572 1.90143,0 3.45714,-3.09857 3.45714,-6.88572 z m 190.14285,-1.72142 c 0,-6.31191 -1.8438,-8.60715 -6.91428,-8.60715 -5.07049,0 -6.91429,2.29524 -6.91429,8.60715 0,6.3119 1.8438,8.60714 6.91429,8.60714 5.07048,0 6.91428,-2.29524 6.91428,-8.60714 z m 24.2,-1.72143 c 0,-8.72191 -1.34445,-10.32858 -8.64286,-10.32858 -7.29841,0 -8.64285,1.60667 -8.64285,10.32858 0,8.7219 1.34444,10.32857 8.64285,10.32857 7.29841,0 8.64286,-1.60667 8.64286,-10.32857 z m 72.59999,2.12297 c 0,-5.59917 -2.47078,-8.86501 -7.77857,-10.28156 -12.22189,-3.2618 -12.96428,-2.79461 -12.96428,8.15859 0,9.18095 1.15237,10.32857 10.37143,10.32857 8.62273,0 10.37142,-1.38351 10.37142,-8.2056 z m -262.74284,-2.12297 c 0,-5.35556 -2.30476,-6.88572 -10.37142,-6.88572 -8.06667,0 -10.37143,1.53016 -10.37143,6.88572 0,5.35555 2.30476,6.88571 10.37143,6.88571 8.06666,0 10.37142,-1.53016 10.37142,-6.88571 z m 24.2,2.10341 c 6.655,-0.73354 16.37822,-1.50689 21.60714,-1.71856 7.84143,-0.31743 9.50715,-1.95744 9.50715,-9.36034 0,-6.37571 -1.43444,-8.42732 -4.95229,-7.08298 -2.72375,1.04088 -14.3916,2.95604 -25.92856,4.2559 -19.00978,2.14183 -20.97629,3.11849 -20.97629,10.41778 0,5.01027 1.63326,7.44354 4.32142,6.43815 2.37679,-0.88893 9.76643,-2.21641 16.42143,-2.94995 z m 193.59999,-5.54627 c 0,-6.62098 -1.76,-10.32857 -4.90295,-10.32857 -10.16469,0 -15.83991,4.44932 -15.83991,12.41835 0,6.85897 1.73698,8.23879 10.37143,8.23879 9.21906,0 10.37143,-1.14762 10.37143,-10.32857 z m 20.10819,1.12622 C 541.14344,296.31356 533,295.13167 533,308.30393 c 0,7.3408 1.67052,10.61547 5.41534,10.61547 3.83787,0 5.09669,-2.68064 4.32142,-9.20235 z m -168.76532,-8.38028 c 0,-3.58455 -2.33358,-6.51737 -5.18572,-6.51737 -3.20909,0 -5.18571,3.23958 -5.18571,8.49909 0,6.14027 1.43924,7.94909 5.18571,6.51737 2.85214,-1.08995 5.18572,-4.91454 5.18572,-8.49909 z m 17.28571,-1.35308 c 0,-8.74824 -7.87378,-11.97421 -12.20233,-4.99942 -3.32996,5.36576 0.85391,13.60656 6.90813,13.60656 3.3424,0 5.2942,-3.17319 5.2942,-8.60714 z m 214.34284,0 c 0,-5.35556 -1.95906,-8.60715 -5.18571,-8.60715 -8.68859,0 -10.19982,-0.44369 -14.98689,-4.4002 -3.69987,-3.05793 -4.38566,-1.83167 -3.45714,6.18162 0.83805,7.23238 3.548,10.65298 9.80117,12.37139 13.49468,3.70842 13.82857,3.57453 13.82857,-5.54566 z m -347.08271,-4.23185 c -1.14878,-1.14403 -1.96588,0.88941 -1.81576,4.51875 0.16587,4.01073 0.98508,4.82654 2.08869,2.08006 0.99867,-2.48531 0.87585,-5.45478 -0.27294,-6.59881 z m 22.1113,2.51042 c 0,-3.78715 -1.55571,-6.88572 -3.45714,-6.88572 -1.90143,0 -3.45714,3.09857 -3.45714,6.88572 0,3.78714 1.55571,6.88571 3.45714,6.88571 1.90143,0 3.45714,-3.09857 3.45714,-6.88571 z m 127.91428,-1.97388 c 0,-11.30062 -11.56535,-10.29485 -13.20473,1.14834 -0.83904,5.8568 0.61589,7.71125 6.05,7.71125 5.38132,0 7.15473,-2.19599 7.15473,-8.85959 z m 19.29705,5.41673 c 0.79517,0 1.44581,-3.98681 1.44581,-8.85958 0,-12.83235 -11.72013,-9.87778 -13.23982,3.33766 -0.92603,8.05299 -0.0626,9.50036 4.60419,7.71699 3.1592,-1.20729 6.39461,-2.19507 7.18982,-2.19507 z m -123.01133,-8.01086 c 0,-6.94259 -1.38306,-7.80871 -10.37142,-6.49495 -7.32075,1.07002 -10.37143,3.42636 -10.37143,8.01086 0,4.92138 2.51276,6.49495 10.37143,6.49495 8.55223,0 10.37142,-1.40514 10.37142,-8.01086 z m 145.19999,-2.68606 c 0,-8.33971 -1.20505,-10.23641 -5.46847,-8.60714 -3.00764,1.14938 -6.89693,2.08978 -8.64286,2.08978 -1.74589,0 -3.17438,3.87321 -3.17438,8.60714 0,6.88572 1.72857,8.60714 8.64286,8.60714 7.36454,0 8.64285,-1.58211 8.64285,-10.69692 z m 127.91428,2.29297 c 0,-4.62218 -1.55571,-9.36147 -3.45714,-10.53176 -2.01697,-1.24141 -3.45714,2.25948 -3.45714,8.40396 0,5.79246 1.55571,10.53175 3.45714,10.53175 1.90143,0 3.45714,-3.78177 3.45714,-8.40395 z m -230.76427,-0.75071 c 10.87458,-1.72288 12.96429,-3.40781 12.96429,-10.45308 0,-6.35777 -1.47043,-7.98198 -6.05,-6.6828 -3.3275,0.94399 -14.99536,3.48216 -25.92857,5.64039 -16.22362,3.20256 -19.87857,5.18425 -19.87857,10.77804 0,7.32114 -2.49793,7.27506 38.89285,0.71745 z m 123.59285,-4.29444 c 0,-8.31124 -1.17124,-9.70124 -6.91428,-8.2056 -4.47448,1.16527 -6.91429,4.69611 -6.91429,10.00625 0,5.91036 1.93403,8.2056 6.91429,8.2056 5.32828,0 6.91428,-2.29524 6.91428,-10.00625 z m 96.79999,2.15391 c 0,-5.56323 -3.02347,-8.98886 -10.37142,-11.75094 -10.00805,-3.76201 -10.37143,-3.55606 -10.37143,5.87846 0,9.30422 3.48183,12.12959 16.42143,13.32544 2.37678,0.21966 4.32142,-3.13417 4.32142,-7.45296 z m -72.59999,-6.28744 c 0,-8.33972 -1.20506,-10.23641 -5.46847,-8.60714 -3.00765,1.14937 -6.89694,2.08977 -8.64286,2.08977 -1.74589,0 -3.17438,3.87322 -3.17438,8.60715 0,6.88571 1.72857,8.60714 8.64285,8.60714 7.36455,0 8.64286,-1.58211 8.64286,-10.69692 z m 27.65714,-3.47605 c 0,-9.4474 -0.9299,-10.48195 -7.77857,-8.65416 -4.27821,1.14178 -8.94536,2.09712 -10.37143,2.12297 -1.42607,0.0259 -2.59286,3.92023 -2.59286,8.65416 0,7.26825 1.61335,8.60714 10.37143,8.60714 9.30528,0 10.37143,-1.103 10.37143,-10.73011 z m 20.10819,1.52776 C 541.14344,268.7707 533,267.58881 533,280.76107 c 0,7.3408 1.67052,10.61547 5.41534,10.61547 3.83787,0 5.09669,-2.68064 4.32142,-9.20235 z M 373.97144,279.4346 c 0,-6.14028 -1.43925,-7.94909 -5.18572,-6.51737 -2.85214,1.08995 -5.18571,4.91454 -5.18571,8.49909 0,3.58455 2.33357,6.51737 5.18571,6.51737 3.20909,0 5.18572,-3.23959 5.18572,-8.49909 z m 16.66187,-1.23844 c 0.71801,-4.8595 -0.72331,-7.47676 -4.11739,-7.47676 -6.72276,0 -10.2581,5.7672 -7.66331,12.50117 2.81526,7.30607 10.43926,4.05446 11.7807,-5.02441 z m 214.96668,1.46718 c 0,-6.181 -2.75046,-9.22521 -10.8873,-12.05 C 580.69934,262.74845 581.4,262.5206 581.4,271.94278 c 0,6.1172 2.7599,8.9908 11.23571,11.69853 6.17964,1.97419 11.62464,3.74759 12.1,3.9409 0.47536,0.19332 0.86428,-3.37018 0.86428,-7.91887 z m -197.05713,-3.77966 c 0,-6.3119 -1.8438,-8.60714 -6.91428,-8.60714 -5.07049,0 -6.91429,2.29524 -6.91429,8.60714 0,6.31191 1.8438,8.60715 6.91429,8.60715 5.07048,0 6.91428,-2.29524 6.91428,-8.60715 z m 20.08209,-5.78512 c 0.90498,-7.77071 -0.0173,-8.8864 -6.04999,-7.31545 -4.74901,1.23677 -7.11781,4.6685 -7.11781,10.31171 0,11.97887 11.73478,9.30869 13.1678,-2.99626 z m 20.81487,-4.15637 c 0.92645,-8.08059 0.0646,-9.53061 -4.60418,-7.74643 -3.15921,1.20729 -7.17247,2.19507 -8.9184,2.19507 -1.74589,0 -3.17438,3.98097 -3.17438,8.84659 0,7.20499 1.44343,8.64245 7.77857,7.74643 5.67646,-0.80285 8.0866,-3.78681 8.91839,-11.04166 z m 128.50303,3.25897 c 0,-4.62218 -1.55571,-9.36147 -3.45714,-10.53176 -2.01697,-1.24141 -3.45714,2.25948 -3.45714,8.40395 0,5.79247 1.55571,10.53176 3.45714,10.53176 1.90143,0 3.45714,-3.78178 3.45714,-8.40395 z m -107.7768,-6.55973 c 0.90709,-7.86631 -0.0906,-9.51111 -5.18571,-8.54826 -3.9771,0.75158 -6.72404,4.79243 -7.4321,10.93277 -0.90708,7.8663 0.0906,9.51111 5.18571,8.54826 3.9771,-0.75158 6.72404,-4.79243 7.4321,-10.93277 z m 97.40537,3.03482 c 0,-7.95304 -8.36967,-15.614 -17.05844,-15.614 -7.3839,0 -3.92963,17.33801 4.09416,20.54986 11.76867,4.71088 12.96428,4.25568 12.96428,-4.93586 z m -78.06846,2.95337 c 3.00767,-1.14938 5.46847,-5.79723 5.46847,-10.32857 0,-6.49281 -1.83163,-8.2388 -8.64286,-8.2388 -7.29841,0 -8.64285,1.60667 -8.64285,10.32858 0,10.51066 2.07916,11.96021 11.81724,8.23879 z m 28.22266,-4.79594 c 3.18375,0 4.90295,-3.76249 4.90295,-10.73011 0,-9.4474 -0.9299,-10.48195 -7.77857,-8.65416 -4.27821,1.14178 -8.94536,2.09712 -10.37143,2.12298 -1.42607,0.0258 -2.59286,4.86062 -2.59286,10.74393 0,8.33972 1.20506,10.23641 5.46848,8.60714 3.00764,-1.14938 7.67479,-2.08978 10.37143,-2.08978 z m 24.29915,-15.74324 c -1.04143,-2.70265 -3.49801,-4.9139 -5.45914,-4.9139 -5.11218,0 -4.41823,19.79274 0.7558,21.55622 4.74299,1.61658 7.70306,-8.85741 4.70334,-16.64232 z m -44.46048,119.74718 c -16.74879,-0.89466 -19.87857,-2.07763 -19.87857,-7.51359 0,-5.65548 3.30661,-6.59032 26.79285,-7.5746 14.73607,-0.61758 35.73821,-0.65824 46.67143,-0.0905 18.52862,0.96241 19.87857,1.60736 19.87857,9.49712 0,8.33678 -0.40456,8.45159 -26.79286,7.60393 -14.73607,-0.47336 -35.73821,-1.33848 -46.67142,-1.92249 z m 87.29285,-4.16107 c 0,-5.8656 2.30477,-6.88572 15.55714,-6.88572 13.25237,0 15.55714,1.02012 15.55714,6.88572 0,5.86559 -2.30477,6.88571 -15.55714,6.88571 -13.25237,0 -15.55714,-1.02012 -15.55714,-6.88571 z M 232.23151,283.86212 c 0.003,-4.77456 296.35831,-80.20308 330.1542,-84.03105 l 17.28571,-1.95791 18.15,24.3073 c 9.9825,13.36902 18.15,27.30167 18.15,30.96145 0,5.90911 -4.80975,4.51542 -42.95773,-12.4476 L 530.056,221.59257 387.19228,253.19735 c -78.57503,17.38264 -145.58619,32.41379 -148.91369,33.40257 -3.61446,1.07405 -6.04882,-0.0282 -6.04708,-2.7378 z"
       style="fill:#000000" />
  </g>
</svg>
